<svg width="123" height="24" viewBox="0 0 123 24" fill="none" xmlns="http://www.w3.org/2000/svg">
<path d="M11.3643 5.61162V10.8324C11.3643 11.1061 11.14 11.3248 10.8648 11.3248H0.50091C0.225761 11.3262 0.00141024 11.1047 0.00141024 10.8324V5.61162C0.00141024 2.51302 2.54547 0 5.68217 0C8.81886 0 11.3643 2.51302 11.3643 5.61162ZM5.68217 23.9986C8.82027 23.9986 11.3629 21.487 11.3629 18.387V13.1662C11.3629 12.8925 11.1386 12.6738 10.8634 12.6738H0.499499C0.224351 12.6724 0 12.8939 0 13.1662V18.387C0.00141102 21.487 2.54406 23.9986 5.68217 23.9986ZM24 18.3362C24 15.2094 21.4334 12.6723 18.2656 12.6723C15.0979 12.6723 12.5312 15.2094 12.5312 18.3362C12.5312 21.463 15.0979 24 18.2656 24C21.4334 24 24 21.4644 24 18.3362ZM18.2656 0.0014124C15.0993 0.0014124 12.5312 2.5356 12.5312 5.66524V10.8338C12.5312 11.1075 12.7556 11.3262 13.0308 11.3262H19.0332C21.7762 11.3262 23.9986 9.1307 23.9986 6.42295V5.66383C24 2.5356 21.4334 0.0014124 18.2656 0.0014124Z" fill="url(#paint0_linear_9624_5997)"/>
<path d="M31.12 4.00026H32.1218C32.277 4.00026 32.4026 4.12584 32.4026 4.28106V9.29017C32.4026 9.55403 32.7342 9.67256 32.9021 9.46796L36.7119 4.82148C37.1394 4.30081 37.7772 3.99744 38.4517 3.99744H41.0762C41.3104 3.99744 41.443 4.26836 41.2977 4.4532L35.8187 11.418C35.7397 11.5196 35.7383 11.6621 35.8173 11.7637L41.4331 19.084C41.5757 19.2689 41.443 19.537 41.2088 19.537L38.6083 19.5285C37.9056 19.5356 37.2396 19.2139 36.8078 18.6579L33.4186 14.288C33.3071 14.1455 33.0926 14.1427 32.9783 14.2823L32.5085 14.8566C32.4675 14.9074 32.445 14.9695 32.445 15.0344V15.1967V19.2576C32.445 19.4128 32.3194 19.5384 32.1642 19.5384H31.1214C29.8783 19.5384 28.8709 18.5309 28.8709 17.2878V6.24801C28.8694 5.00773 29.8769 4.00026 31.12 4.00026Z" fill="#016CD7"/>
<path d="M50.6668 8.86828C51.5713 9.35226 52.2754 10.0352 52.7805 10.9185C53.2857 11.8018 53.5383 12.8107 53.5383 13.9465C53.5383 15.0824 53.2857 16.0913 52.7805 16.9746C52.2754 17.8579 51.5685 18.5408 50.657 19.0248C49.7454 19.5088 48.7083 19.75 47.5443 19.75C46.002 19.75 44.6912 19.3225 43.6117 18.4674C42.2515 17.3739 41.5714 15.8669 41.5714 13.9465C41.5714 12.4466 42.006 11.1781 42.8752 10.1396C43.997 8.80761 45.5533 8.14161 47.5443 8.14161C48.721 8.14302 49.7624 8.38571 50.6668 8.86828ZM49.1316 16.2606C49.5451 16.0221 49.864 15.6962 50.0883 15.2828C50.3127 14.8693 50.4241 14.4037 50.4241 13.8844C50.4241 13.0999 50.1716 12.448 49.6664 11.9288C49.1613 11.4109 48.5164 11.1513 47.7319 11.1513C46.9333 11.1513 46.2743 11.4109 45.7551 11.9288C45.2358 12.448 44.9776 13.0999 44.9776 13.8844C44.9776 14.2767 45.0439 14.6422 45.178 14.978C45.3106 15.3138 45.4997 15.6017 45.7452 15.8401C45.9907 16.0786 46.2814 16.2677 46.6172 16.4073C46.953 16.547 47.3255 16.6176 47.7319 16.6176C48.2512 16.6176 48.7182 16.4991 49.1316 16.2606Z" fill="#016CD7"/>
<path d="M55.0791 19.6259C54.9239 19.6259 54.7983 19.5003 54.7983 19.3451L54.7786 13.2114C54.8068 12.2576 54.9507 11.4378 55.2103 10.7506C55.47 10.0634 55.7677 9.53429 56.1035 9.16319C56.4393 8.79209 56.857 8.50142 57.3551 8.28977C57.8532 8.07953 58.2948 7.94971 58.68 7.90033C59.0652 7.85094 59.497 7.82696 59.9739 7.82696C60.7726 7.82696 61.5021 7.9991 62.161 8.34198C62.6803 8.61289 63.0909 8.96847 63.3928 9.41012C63.5015 9.56956 63.7315 9.57239 63.85 9.42C63.9784 9.25491 64.1266 9.10252 64.2959 8.96283C64.5837 8.72436 64.9026 8.53105 65.2525 8.38431C65.6025 8.23756 65.9679 8.12468 66.3461 8.04849C66.7242 7.97229 67.1038 7.93278 67.482 7.93278C68.7434 7.93278 69.8482 8.36738 70.7936 9.23656C71.7404 10.1058 72.2131 11.1993 72.2131 12.5172V19.3437C72.2131 19.4989 72.0875 19.6245 71.9323 19.6245H69.2754C69.1201 19.6245 68.9946 19.5003 68.9946 19.3451L68.9551 13.1691C68.9551 12.5101 68.79 12.005 68.4612 11.655C68.131 11.3051 67.6654 11.1231 67.0629 11.109C65.8014 11.109 65.1707 11.7962 65.1707 13.1691V19.3409C65.1707 19.4975 65.0423 19.6245 64.8857 19.6217L62.0834 19.5864C61.9296 19.585 61.8054 19.4594 61.8054 19.3056V13.1691C61.8054 12.4678 61.6516 11.9499 61.3426 11.6127C61.0336 11.2769 60.5778 11.1076 59.9753 11.1076C59.6663 11.1076 59.3898 11.1499 59.1443 11.2332C58.8987 11.3178 58.6885 11.4406 58.5135 11.6014C58.3386 11.7623 58.2017 11.9768 58.1029 12.2434C58.0042 12.5101 57.9562 12.8191 57.9562 13.1691V19.3437C57.9562 19.4989 57.8306 19.6245 57.6754 19.6245H55.0791V19.6259Z" fill="#016CD7"/>
<path d="M85.7645 16.8278C85.2805 17.7252 84.6145 18.4477 83.7665 18.9937C82.9185 19.5398 81.9901 19.8135 80.9798 19.8135C80.4464 19.8135 79.9102 19.7684 79.3712 19.6767C78.8308 19.5849 78.3341 19.4382 77.8783 19.235C77.6018 19.1123 77.3831 18.9768 77.2236 18.8301C77.1319 18.7454 76.9852 18.8061 76.9852 18.9302V23.7164C76.9852 23.8716 76.8596 23.9972 76.7044 23.9972H73.84C73.6848 23.9972 73.5578 23.8702 73.5592 23.715L73.579 14.3444C73.6213 13.8125 73.7046 13.3003 73.8315 12.8092C74.6302 9.68383 77.1065 8.0781 80.3081 8.0781C81.317 8.0781 82.6419 8.3476 83.5676 8.93035C84.4932 9.51169 85.2213 10.2581 85.7547 11.1696C86.2866 12.0812 86.5462 13.0068 86.5321 13.9451C86.5039 14.9709 86.2471 15.9318 85.7645 16.8278ZM83.2727 13.8322C83.2727 13.0265 82.9919 12.3605 82.4317 11.8342C81.8715 11.3079 81.1632 11.0455 80.3081 11.0455C79.7324 11.0455 79.2216 11.1682 78.7729 11.4137C78.3242 11.6593 77.9743 11.9923 77.7217 12.4127C77.4691 12.8332 77.3436 13.3102 77.3436 13.8421C77.3436 14.6407 77.6201 15.3039 78.1747 15.8288C78.7278 16.3551 79.4361 16.6176 80.2982 16.6176C81.1604 16.6176 81.8715 16.3551 82.4331 15.8288C82.9919 15.3039 83.2727 14.6379 83.2727 13.8322Z" fill="#016CD7"/>
<path d="M100.24 14.1003C100.225 13.3878 100.147 12.7401 100.007 12.156C99.8789 11.6833 99.6927 11.2388 99.4542 10.8197C98.9293 9.89974 98.197 9.18858 97.2559 8.68626C96.3147 8.18253 95.2325 7.93137 94.0063 7.93137C92.8225 7.93137 91.7868 8.15713 90.8992 8.61148C90.8767 8.62277 90.8541 8.63547 90.8315 8.64817C89.927 9.16742 89.1947 9.89692 88.6345 10.8352C88.152 11.6438 87.8768 12.5228 87.8105 13.4753C87.8049 13.543 87.8021 13.6121 87.7992 13.6813C87.795 13.7687 87.7936 13.8576 87.7936 13.9479V13.9705C87.7936 14.0171 87.7936 14.0622 87.795 14.1074C87.7964 14.1596 87.7978 14.2132 87.7992 14.2654C87.8035 14.3642 87.8091 14.4616 87.8162 14.5575C87.9262 15.9911 88.437 17.1792 89.3485 18.1217C90.387 19.1941 91.6838 19.7303 93.2401 19.7303C94.0105 19.7303 94.7668 19.5906 95.5104 19.3098C96.048 19.108 96.4474 18.8823 96.7056 18.6353C96.7945 18.5507 96.9412 18.6156 96.9412 18.7384V19.1758C96.9412 19.2506 96.9694 19.3183 97.0174 19.3677C97.0682 19.4227 97.1416 19.458 97.222 19.458H99.9608C100.116 19.458 100.242 19.331 100.242 19.1758V14.1582C100.242 14.1384 100.24 14.1187 100.24 14.1003ZM94.788 16.6966C94.5735 16.7432 94.3478 16.7657 94.1121 16.7657C93.6987 16.7657 93.3135 16.6952 92.9551 16.5555C92.5981 16.4158 92.2961 16.2197 92.052 15.9671C91.8065 15.7145 91.6104 15.4098 91.4622 15.0514C91.3155 14.6944 91.2421 14.312 91.2421 13.9056C91.2421 13.0788 91.5116 12.3958 92.052 11.8554C92.591 11.3164 93.274 11.0455 94.1022 11.0455C94.2716 11.0455 94.4367 11.0568 94.5947 11.0822C94.8289 11.1174 95.049 11.1781 95.2579 11.267C95.6092 11.4138 95.9098 11.6141 96.1623 11.8653C96.4149 12.1179 96.611 12.4198 96.7507 12.7697C96.8918 13.1211 96.9624 13.4992 96.9624 13.9056C96.9624 14.312 96.8918 14.6944 96.7507 15.0514C96.611 15.4098 96.4149 15.7145 96.1623 15.9671C95.9098 16.2197 95.6092 16.4158 95.2579 16.5555C95.1365 16.6049 95.0095 16.6444 94.8797 16.6769C94.8501 16.6839 94.819 16.691 94.788 16.6966Z" fill="#016CD7"/>
<path d="M109.57 14.7254C109.549 14.7818 109.52 14.8524 109.485 14.9342C109.45 15.0189 109.4 15.1078 109.337 15.1967C109.275 15.2884 109.204 15.3801 109.127 15.4704C109.049 15.5621 108.955 15.6496 108.843 15.7329C108.73 15.8161 108.605 15.8937 108.465 15.9629C108.324 16.0334 108.157 16.0927 107.96 16.1421C107.762 16.1915 107.553 16.2239 107.329 16.2366C106.543 16.2789 105.891 16.0927 105.372 15.6793C104.853 15.2658 104.566 14.645 104.51 13.8181C104.51 13.7828 104.511 13.7476 104.513 13.7123C104.511 13.677 104.51 13.6417 104.51 13.6065C104.566 12.7796 104.853 12.1588 105.372 11.7453C105.891 11.3319 106.542 11.1457 107.329 11.188C107.552 11.2007 107.762 11.2331 107.96 11.2825C108.157 11.3319 108.324 11.3912 108.465 11.4617C108.605 11.5323 108.73 11.6099 108.843 11.6917C108.956 11.7764 109.051 11.8639 109.127 11.9542C109.204 12.0459 109.275 12.1376 109.337 12.2279C109.4 12.3182 109.45 12.4071 109.485 12.4904C109.52 12.5736 109.549 12.6442 109.57 12.6992V12.7006C109.614 12.8163 109.741 12.8756 109.856 12.8346L112.543 11.8836C112.651 11.8455 112.715 11.7312 112.685 11.6198C112.388 10.5192 111.692 9.63163 110.598 8.95717C109.443 8.24178 108.171 7.89749 106.783 7.92571C105.716 7.96804 104.75 8.25871 103.881 8.79913C103.011 9.33814 102.34 10.0563 101.863 10.9538C101.417 11.7919 101.191 12.7119 101.188 13.7095C101.191 14.7071 101.417 15.627 101.863 16.4652C102.34 17.3626 103.011 18.0808 103.881 18.6198C104.75 19.1602 105.718 19.4509 106.783 19.4932C108.171 19.5215 109.443 19.1786 110.598 18.4618C111.692 17.7873 112.388 16.8984 112.685 15.7992C112.715 15.6891 112.651 15.5734 112.543 15.5353L109.856 14.5843C109.741 14.5434 109.614 14.6026 109.57 14.7184V14.7254Z" fill="#016CD7"/>
<path d="M115.252 11.0638L113.648 11.0483C113.492 11.0469 113.367 10.9185 113.37 10.7633L113.404 8.44215C113.406 8.28835 113.531 8.16559 113.684 8.16559H115.334C115.489 8.16559 115.615 8.04001 115.615 7.8848V6.04624C115.615 5.9517 115.661 5.86422 115.74 5.81201L118.369 4.06517C118.557 3.93959 118.808 4.07646 118.806 4.30222L118.772 7.77897C118.771 7.93418 118.897 8.06259 119.052 8.06259L121.435 8.07952C121.59 8.08093 121.714 8.20651 121.714 8.36031V10.807C121.714 10.9622 121.589 11.0878 121.434 11.0878H119.073C118.918 11.0878 118.792 11.2134 118.792 11.3686V14.7042C118.778 15.2644 118.827 15.6651 118.939 15.9022C119.05 16.1407 119.261 16.2874 119.57 16.3438C119.85 16.4003 120.148 16.3692 120.463 16.2493C120.641 16.1816 120.794 16.0997 120.92 16.0038C121.057 15.8994 121.254 15.9417 121.335 16.0927C121.37 16.159 121.408 16.2296 121.451 16.3015C121.569 16.5118 121.755 16.8208 122.008 17.2271C122.228 17.5813 122.426 17.9087 122.603 18.2106C122.656 18.2981 122.657 18.4082 122.603 18.4942C122.411 18.8047 122.035 19.0657 121.472 19.2774C120.82 19.5229 120.123 19.6456 119.379 19.6456C118.496 19.6456 117.725 19.4213 117.067 18.9726C116.058 18.2713 115.545 17.2554 115.531 15.9234V11.3446C115.531 11.1908 115.406 11.0652 115.252 11.0638Z" fill="#016CD7"/>
<defs>
<linearGradient id="paint0_linear_9624_5997" x1="20.8048" y1="-0.0962033" x2="-8.11817" y2="32.0668" gradientUnits="userSpaceOnUse">
<stop offset="0.167164" stop-color="#016CD7"/>
<stop offset="1" stop-color="#002D5A"/>
</linearGradient>
</defs>
</svg>
